<svg width="1024" height="1024" viewBox="0 0 1024 1024" fill="none" xmlns="http://www.w3.org/2000/svg">
  <rect width="1024" height="1024" rx="224" fill="#080A0F"/>
  <path d="M218 512C218 347.971 347.971 218 512 218C676.029 218 806 347.971 806 512C806 676.029 676.029 806 512 806C347.971 806 218 676.029 218 512Z" fill="#121826"/>
  <path d="M306 512C306 394.361 394.361 306 512 306C629.639 306 718 394.361 718 512C718 629.639 629.639 718 512 718C394.361 718 306 629.639 306 512Z" stroke="#43F59F" stroke-width="62"/>
  <path d="M402 396H622C661.764 396 694 428.236 694 468C694 507.764 661.764 540 622 540H402V396Z" fill="#F7FAFC"/>
  <path d="M402 484H638C677.764 484 710 516.236 710 556C710 595.764 677.764 628 638 628H402V484Z" fill="#F7FAFC"/>
  <path d="M336 396H430V628H336V396Z" fill="#F7FAFC"/>
  <path d="M454 455H604C613.941 455 622 463.059 622 473C622 482.941 613.941 491 604 491H454V455Z" fill="#080A0F"/>
  <path d="M454 537H620C629.941 537 638 545.059 638 555C638 564.941 629.941 573 620 573H454V537Z" fill="#080A0F"/>
</svg>
